<svg width="101" height="34" viewBox="0 0 101 34" fill="none" xmlns="http://www.w3.org/2000/svg">
<path d="M25.5559 17.9726C25.5559 18.3246 25.5339 18.6913 25.4899 19.0726H16.9759C17.0345 19.8353 17.2765 20.4219 17.7019 20.8326C18.1419 21.2286 18.6772 21.4266 19.3079 21.4266C20.2465 21.4266 20.8992 21.0306 21.2659 20.2386H25.2699C25.0645 21.0453 24.6905 21.7713 24.1479 22.4166C23.6199 23.0619 22.9525 23.5679 22.1459 23.9346C21.3392 24.3013 20.4372 24.4846 19.4399 24.4846C18.2372 24.4846 17.1665 24.2279 16.2279 23.7146C15.2892 23.2013 14.5559 22.4679 14.0279 21.5146C13.4999 20.5613 13.2359 19.4466 13.2359 18.1706C13.2359 16.8946 13.4925 15.7799 14.0059 14.8266C14.5339 13.8733 15.2672 13.1399 16.2059 12.6266C17.1445 12.1133 18.2225 11.8566 19.4399 11.8566C20.6279 11.8566 21.6839 12.1059 22.6079 12.6046C23.5319 13.1033 24.2505 13.8146 24.7639 14.7386C25.2919 15.6626 25.5559 16.7406 25.5559 17.9726ZM21.7059 16.9826C21.7059 16.3373 21.4859 15.8239 21.0459 15.4426C20.6059 15.0613 20.0559 14.8706 19.3959 14.8706C18.7652 14.8706 18.2299 15.0539 17.7899 15.4206C17.3645 15.7873 17.1005 16.3079 16.9979 16.9826H21.7059ZM35.0205 11.9006C36.4578 11.9006 37.6018 12.3699 38.4525 13.3086C39.3178 14.2326 39.7505 15.5086 39.7505 17.1366V24.3086H36.0105V17.6426C36.0105 16.8213 35.7978 16.1833 35.3725 15.7286C34.9472 15.2739 34.3752 15.0466 33.6565 15.0466C32.9378 15.0466 32.3658 15.2739 31.9405 15.7286C31.5152 16.1833 31.3025 16.8213 31.3025 17.6426V24.3086H27.5405V12.0326H31.3025V13.6606C31.6838 13.1179 32.1972 12.6926 32.8425 12.3846C33.4878 12.0619 34.2138 11.9006 35.0205 11.9006ZM49.2067 21.1186V24.3086H47.2927C45.9287 24.3086 44.8654 23.9786 44.1027 23.3186C43.3401 22.6439 42.9587 21.5513 42.9587 20.0406V15.1566H41.4627V12.0326H42.9587V9.04059H46.7207V12.0326H49.1847V15.1566H46.7207V20.0846C46.7207 20.4513 46.8087 20.7153 46.9847 20.8766C47.1607 21.0379 47.4541 21.1186 47.8647 21.1186H49.2067Z" fill="#4285F4"/>
<path d="M56.8902 24.4626C55.7609 24.4626 54.7489 24.2793 53.8542 23.9126C52.9596 23.5459 52.2409 23.0033 51.6982 22.2846C51.1702 21.5659 50.8916 20.7006 50.8622 19.6886H54.8662C54.9249 20.2606 55.1229 20.7006 55.4602 21.0086C55.7976 21.3019 56.2376 21.4486 56.7802 21.4486C57.3376 21.4486 57.7776 21.3239 58.1002 21.0746C58.4229 20.8106 58.5842 20.4513 58.5842 19.9966C58.5842 19.6153 58.4522 19.2999 58.1882 19.0506C57.9389 18.8013 57.6236 18.5959 57.2422 18.4346C56.8756 18.2733 56.3476 18.0899 55.6582 17.8846C54.6609 17.5766 53.8469 17.2686 53.2162 16.9606C52.5856 16.6526 52.0429 16.1979 51.5882 15.5966C51.1336 14.9953 50.9062 14.2106 50.9062 13.2426C50.9062 11.8053 51.4269 10.6833 52.4682 9.87659C53.5096 9.05526 54.8662 8.64459 56.5382 8.64459C58.2396 8.64459 59.6109 9.05526 60.6522 9.87659C61.6936 10.6833 62.2509 11.8126 62.3242 13.2646H58.2542C58.2249 12.7659 58.0416 12.3773 57.7042 12.0986C57.3669 11.8053 56.9342 11.6586 56.4062 11.6586C55.9516 11.6586 55.5849 11.7833 55.3062 12.0326C55.0276 12.2673 54.8882 12.6119 54.8882 13.0666C54.8882 13.5653 55.1229 13.9539 55.5922 14.2326C56.0616 14.5113 56.7949 14.8119 57.7922 15.1346C58.7896 15.4719 59.5962 15.7946 60.2122 16.1026C60.8429 16.4106 61.3856 16.8579 61.8402 17.4446C62.2949 18.0313 62.5222 18.7866 62.5222 19.7106C62.5222 20.5906 62.2949 21.3899 61.8402 22.1086C61.4002 22.8273 60.7549 23.3993 59.9042 23.8246C59.0536 24.2499 58.0489 24.4626 56.8902 24.4626ZM70.4254 24.4846C69.2227 24.4846 68.1374 24.2279 67.1694 23.7146C66.2161 23.2013 65.4607 22.4679 64.9034 21.5146C64.3607 20.5613 64.0894 19.4466 64.0894 18.1706C64.0894 16.9093 64.3681 15.8019 64.9254 14.8486C65.4827 13.8806 66.2454 13.1399 67.2134 12.6266C68.1814 12.1133 69.2667 11.8566 70.4694 11.8566C71.6721 11.8566 72.7574 12.1133 73.7254 12.6266C74.6934 13.1399 75.4561 13.8806 76.0134 14.8486C76.5707 15.8019 76.8494 16.9093 76.8494 18.1706C76.8494 19.4319 76.5634 20.5466 75.9914 21.5146C75.4341 22.4679 74.6641 23.2013 73.6814 23.7146C72.7134 24.2279 71.6281 24.4846 70.4254 24.4846ZM70.4254 21.2286C71.1441 21.2286 71.7527 20.9646 72.2514 20.4366C72.7647 19.9086 73.0214 19.1533 73.0214 18.1706C73.0214 17.1879 72.7721 16.4326 72.2734 15.9046C71.7894 15.3766 71.1881 15.1126 70.4694 15.1126C69.7361 15.1126 69.1274 15.3766 68.6434 15.9046C68.1594 16.4179 67.9174 17.1733 67.9174 18.1706C67.9174 19.1533 68.1521 19.9086 68.6214 20.4366C69.1054 20.9646 69.7067 21.2286 70.4254 21.2286ZM85.0052 15.1566H82.9812V24.3086H79.2192V15.1566H77.8552V12.0326H79.2192V11.6806C79.2192 10.1699 79.6519 9.02593 80.5172 8.24859C81.3825 7.45659 82.6512 7.06059 84.3232 7.06059C84.6019 7.06059 84.8072 7.06793 84.9392 7.08259V10.2726C84.2205 10.2286 83.7145 10.3313 83.4212 10.5806C83.1279 10.8299 82.9812 11.2773 82.9812 11.9226V12.0326H85.0052V15.1566ZM93.6149 21.1186V24.3086H91.7009C90.3369 24.3086 89.2736 23.9786 88.5109 23.3186C87.7483 22.6439 87.3669 21.5513 87.3669 20.0406V15.1566H85.8709V12.0326H87.3669V9.04059H91.1289V12.0326H93.5929V15.1566H91.1289V20.0846C91.1289 20.4513 91.2169 20.7153 91.3929 20.8766C91.5689 21.0379 91.8623 21.1186 92.2729 21.1186H93.6149ZM97.4704 24.4846C96.8104 24.4846 96.2678 24.2939 95.8424 23.9126C95.4318 23.5166 95.2264 23.0326 95.2264 22.4606C95.2264 21.8739 95.4318 21.3826 95.8424 20.9866C96.2678 20.5906 96.8104 20.3926 97.4704 20.3926C98.1158 20.3926 98.6438 20.5906 99.0544 20.9866C99.4798 21.3826 99.6924 21.8739 99.6924 22.4606C99.6924 23.0326 99.4798 23.5166 99.0544 23.9126C98.6438 24.2939 98.1158 24.4846 97.4704 24.4846Z" fill="#3054F8"/>
<path fill-rule="evenodd" clip-rule="evenodd" d="M7.55661 16.7487C7.40616 16.7459 7.2695 16.66 7.20384 16.5269L1.78022 5.53258C1.70499 5.3801 1.73869 5.19835 1.86362 5.08306C1.98856 4.96784 2.17599 4.94556 2.32726 5.02799L11.0209 9.76569C11.1523 9.83732 11.2271 9.97095 11.2269 10.1085C11.2269 10.1676 11.2129 10.2274 11.1837 10.2833L7.91365 16.5399C7.84535 16.6706 7.70707 16.7514 7.55661 16.7487Z" fill="#4285F4"/>
<path fill-rule="evenodd" clip-rule="evenodd" d="M1.73156 28.4322C1.6053 28.3152 1.57039 28.1323 1.6453 27.9804L10.4908 10.0357C10.5708 9.87328 10.7551 9.78755 10.9355 9.82898C11.1159 9.87037 11.2436 10.0279 11.2443 10.2089L11.2914 23.3525L11.2914 23.3543C11.2912 23.4945 11.2151 23.6231 11.09 23.6906L2.19724 28.4918C2.04627 28.5733 1.85779 28.5492 1.73156 28.4322Z" fill="url(#paint0_linear_280_109)"/>
<path d="M1.73782 5.39264C1.73899 5.17752 1.92449 5.00977 2.13864 5.03018C2.32714 5.04815 2.47083 5.20689 2.46999 5.39624L2.36963 28.0241C2.36889 28.1902 2.25949 28.3363 2.10024 28.3838C1.85756 28.4562 1.61392 28.2736 1.61529 28.0203L1.73782 5.39264Z" fill="url(#paint1_linear_280_109)"/>
<defs>
<linearGradient id="paint0_linear_280_109" x1="1.6178" y1="19.1311" x2="11.2968" y2="19.1436" gradientUnits="userSpaceOnUse">
<stop stop-color="#1E22FB"/>
<stop offset="1" stop-color="#4285F4"/>
</linearGradient>
<linearGradient id="paint1_linear_280_109" x1="2.3969" y1="4.99574" x2="2.26944" y2="28.5328" gradientUnits="userSpaceOnUse">
<stop stop-color="#4285F4"/>
<stop offset="1" stop-color="#2027FB"/>
</linearGradient>
</defs>
</svg>
