<svg width="66" height="66" viewBox="0 0 66 66" fill="none" xmlns="http://www.w3.org/2000/svg">
<rect x="0.558105" y="0.890625" width="65" height="65" rx="20" fill="#F5F5FF"/>
<path fill-rule="evenodd" clip-rule="evenodd" d="M35.3705 33.3674C35.0565 33.3615 34.7713 33.1817 34.6342 32.9032L23.3149 9.89383C23.1578 9.5747 23.2282 9.19433 23.4889 8.95303C23.7497 8.71189 24.1409 8.66528 24.4565 8.83777L42.6008 18.7531C42.8751 18.903 43.031 19.1826 43.0307 19.4704C43.0305 19.5941 43.0015 19.7194 42.9405 19.8364L36.1156 32.9306C35.9731 33.204 35.6846 33.3731 35.3705 33.3674Z" fill="#4285F4"/>
<path fill-rule="evenodd" clip-rule="evenodd" d="M23.213 57.8206C22.9495 57.5757 22.8767 57.1931 23.033 56.8751L41.494 19.3196C41.6612 18.9796 42.0457 18.8002 42.4222 18.8869C42.7989 18.9735 43.0652 19.3033 43.0667 19.682L43.1648 47.1895V47.1934C43.1645 47.4868 43.0056 47.7558 42.7447 47.8971L24.1849 57.9453C23.8698 58.1158 23.4765 58.0654 23.213 57.8206Z" fill="url(#paint0_linear_354_93)"/>
<path d="M23.226 9.60194C23.2284 9.15174 23.6155 8.80066 24.0625 8.84337C24.4559 8.88098 24.7558 9.2132 24.754 9.60947L24.5446 56.966C24.543 57.3138 24.3147 57.6195 23.9823 57.7189C23.4758 57.8704 22.9674 57.4881 22.9702 56.9582L23.226 9.60194Z" fill="url(#paint1_linear_354_93)"/>
<defs>
<linearGradient id="paint0_linear_354_93" x1="22.9756" y1="38.3548" x2="43.1762" y2="38.3807" gradientUnits="userSpaceOnUse">
<stop stop-color="#1E22FB"/>
<stop offset="1" stop-color="#4285F4"/>
</linearGradient>
<linearGradient id="paint1_linear_354_93" x1="24.6015" y1="8.7713" x2="24.334" y2="58.0307" gradientUnits="userSpaceOnUse">
<stop stop-color="#4285F4"/>
<stop offset="1" stop-color="#2027FB"/>
</linearGradient>
</defs>
</svg>
