<svg width="18" height="21" viewBox="0 0 18 21" fill="none" xmlns="http://www.w3.org/2000/svg">
<g clip-path="url(#clip0_1_4709)">
<path d="M17.4772 9.05589C17.4817 8.8917 17.4768 8.72739 17.4624 8.56376C17.3089 7.1247 16.6586 5.78413 15.6235 4.77272C14.6458 3.7994 13.67 2.82362 12.6961 1.84537C11.4724 0.615046 9.98942 0.0138271 8.26696 0.00398455C6.9784 -0.000116536 5.69394 -0.000116536 4.40948 -0.000116536C3.84826 -0.000997588 3.29184 0.103331 2.76905 0.307465C1.17209 0.930829 0.0328087 2.49826 0.0131235 4.20677C-0.0106628 6.30407 0.00738195 8.40136 0.00738195 10.4987H0C0 12.5008 0 14.5021 0 16.5035C0 17.1424 0.0820217 17.7658 0.351053 18.3391C1.16635 20.0501 2.52627 20.9728 4.42917 20.9876C7.30485 21.0105 10.1813 20.9941 13.057 20.9933C13.6247 20.9953 14.1877 20.8901 14.7163 20.6833C16.3133 20.0591 17.4501 18.4958 17.4665 16.7823C17.4936 14.2069 17.4772 11.6314 17.4772 9.05589ZM10.4988 2.37851C10.8777 2.54748 11.1705 2.81077 11.4494 3.08554C12.4462 4.0698 13.4379 5.05761 14.4243 6.04898C14.7052 6.33311 14.9431 6.65668 15.1305 7.00945C13.8666 7.00945 12.6248 7.0193 11.3838 7.00945C10.8433 6.99469 10.4988 6.61821 10.4988 6.08015C10.4988 4.85146 10.4988 3.62196 10.4988 2.37851ZM15.7482 16.4723C15.7482 16.9857 15.6571 17.4762 15.3914 17.9249C14.914 18.7303 14.2053 19.197 13.2744 19.2282C12.0933 19.2676 10.9105 19.2413 9.72859 19.2413C7.96594 19.2413 6.20166 19.2413 4.44065 19.2413C3.60895 19.2413 2.91915 18.9469 2.37863 18.3227C1.92095 17.8002 1.7405 17.1744 1.7405 16.4895C1.7405 14.4942 1.7405 12.4983 1.7405 10.5019C1.7405 8.50553 1.7405 6.50967 1.7405 4.51435C1.7405 3.99352 1.83564 3.49565 2.11042 3.04453C2.58122 2.2727 3.2743 1.80436 4.1831 1.77483C5.6029 1.733 7.02433 1.76171 8.44823 1.76417C8.74679 1.76417 8.74679 1.77401 8.74679 2.06683C8.74679 3.38519 8.74679 4.70382 8.74679 6.02273C8.74679 7.43514 9.60966 8.46862 10.9991 8.7155C11.1621 8.7381 11.3268 8.7466 11.4912 8.74093C12.8306 8.74093 14.1692 8.74585 15.5103 8.74093C15.6809 8.74093 15.7227 8.78604 15.7318 8.9509C15.7441 9.16908 15.7539 9.38644 15.7539 9.60708L15.7482 16.4723Z" fill="#B1B1B1"/>
<path d="M8.72081 13.1234H5.31938C4.94126 13.1234 4.6427 12.9906 4.46717 12.6362C4.40715 12.519 4.37475 12.3897 4.37245 12.258C4.37015 12.1263 4.39801 11.9959 4.4539 11.8767C4.5098 11.7574 4.59224 11.6526 4.69491 11.5701C4.79758 11.4877 4.91776 11.4298 5.04624 11.401C5.15403 11.3777 5.26406 11.3664 5.37433 11.3674C7.62172 11.3674 9.86884 11.3674 12.1157 11.3674C12.4126 11.3674 12.6898 11.4313 12.89 11.6667C13.0016 11.7906 13.0754 11.9438 13.1027 12.1082C13.13 12.2727 13.1096 12.4416 13.0439 12.5948C12.9783 12.748 12.8701 12.8793 12.7322 12.9729C12.5943 13.0666 12.4324 13.1189 12.2658 13.1234C12.1977 13.1276 12.1288 13.1234 12.0607 13.1234H8.72081Z" fill="#B1B1B1"/>
<path d="M7.41996 16.6126C6.68914 16.6126 5.95833 16.6167 5.22834 16.6126C4.7682 16.6085 4.42781 16.2845 4.37121 15.8137C4.32528 15.4307 4.61728 15.0132 5.0159 14.9058C5.08194 14.8896 5.1497 14.8816 5.21768 14.882C6.69407 14.882 8.17046 14.882 9.64192 14.882C10.0914 14.882 10.4252 15.206 10.4859 15.6694C10.5368 16.0557 10.2497 16.4707 9.85436 16.588C9.74682 16.6124 9.63625 16.6207 9.52627 16.6126C8.82253 16.6126 8.11933 16.6126 7.41668 16.6126H7.41996Z" fill="#B1B1B1"/>
</g>
<defs>
<clipPath id="clip0_1_4709">
<rect width="17.4821" height="21" fill="white"/>
</clipPath>
</defs>
</svg>
