<svg width="17" height="17" viewBox="0 0 17 17" fill="none" xmlns="http://www.w3.org/2000/svg">
<g clip-path="url(#clip0_1_10656)">
<path d="M16.464 8.74105C16.464 8.2643 16.464 7.78776 16.464 7.31144C16.464 6.15177 16.4763 4.99726 16.4576 3.84082C16.4415 2.86541 16.0466 2.04204 15.3269 1.39263C14.6614 0.787672 13.8664 0.500977 12.9644 0.500977C9.80885 0.504413 6.65305 0.504413 3.49704 0.500977C3.4062 0.500977 3.31471 0.500977 3.22387 0.508708C2.46818 0.547205 1.74831 0.8427 1.1835 1.34624C0.386556 2.0472 0 2.94207 0 4.00446C0 7.1536 0 10.3023 0 13.4506C0 13.5472 0 13.6439 0.00773111 13.7399C0.0479415 14.4956 0.345278 15.2148 0.850422 15.7783C1.54751 16.5662 2.4353 16.9579 3.49189 16.9579H12.976C13.0669 16.9579 13.1583 16.9579 13.2485 16.9502C14.1257 16.9003 14.9485 16.509 15.5408 15.8601C16.1645 15.1894 16.4673 14.3841 16.4653 13.4641C16.4623 11.89 16.4619 10.3156 16.464 8.74105ZM12.9915 15.5818C9.80842 15.5818 6.62513 15.5818 3.44163 15.5818C2.2665 15.5818 1.39482 14.7004 1.38 13.5279C1.37549 13.2013 1.38 12.8746 1.38 12.548C1.37809 12.514 1.38375 12.48 1.39656 12.4485C1.40937 12.417 1.42902 12.3887 1.45409 12.3657C2.53967 11.2839 3.61816 10.1951 4.71018 9.12052C5.55674 8.28685 6.79114 8.27525 7.63383 9.11021C9.72316 11.1802 11.7983 13.2657 13.8786 15.3447C13.8888 15.357 13.8978 15.3702 13.9057 15.384C13.6214 15.5229 13.3077 15.5907 12.9915 15.5818ZM15.0866 13.4706C15.0949 13.8012 15.0219 14.1289 14.874 14.4247C14.8167 14.3571 14.7787 14.3042 14.7336 14.2591C12.7106 12.2353 10.6874 10.2121 8.664 8.18957C7.92439 7.4506 7.03467 7.07822 5.98517 7.13234C5.09094 7.17872 4.33393 7.54531 3.70062 8.17281L1.38709 10.4619C1.35359 10.4445 1.37936 10.3974 1.37936 10.3588C1.37936 8.2323 1.37936 6.10625 1.37936 3.98062C1.37936 2.88023 2.08804 2.06008 3.17427 1.89386C3.23834 1.88553 3.30295 1.88209 3.36754 1.88356C6.60989 1.88356 9.85266 1.88356 13.0959 1.88356C13.52 1.88813 13.9317 2.02695 14.272 2.28009C14.6123 2.53323 14.8637 2.88768 14.99 3.29255C15.059 3.51243 15.0932 3.74178 15.0911 3.97224C15.0877 7.13856 15.0862 10.3047 15.0866 13.4706Z" fill="#4285F4"/>
<path d="M10.9896 2.90729C10.3538 2.90276 9.74226 3.15099 9.28948 3.59736C8.8367 4.04374 8.57978 4.6517 8.57526 5.2875C8.57073 5.9233 8.81896 6.53486 9.26533 6.98764C9.71171 7.44042 10.3197 7.69734 10.9555 7.70186C11.5913 7.70639 12.2028 7.45816 12.6556 7.01179C13.1084 6.56541 13.3653 5.95745 13.3698 5.32165C13.3744 4.68585 13.1261 4.07429 12.6798 3.62151C12.2334 3.16873 11.6254 2.91182 10.9896 2.90729ZM10.9896 6.32508C10.7868 6.328 10.5877 6.27068 10.4175 6.16038C10.2473 6.05008 10.1136 5.89176 10.0334 5.70546C9.95319 5.51916 9.93006 5.31325 9.96694 5.1138C10.0038 4.91435 10.099 4.73032 10.2406 4.58502C10.3821 4.43971 10.5635 4.33966 10.7619 4.29752C10.9603 4.25538 11.1668 4.27305 11.3551 4.3483C11.5435 4.42355 11.7053 4.55299 11.8201 4.72023C11.9348 4.88748 11.9974 5.08501 11.9998 5.28783C12.0023 5.42245 11.978 5.55623 11.9285 5.68142C11.8789 5.80662 11.8051 5.92074 11.7111 6.0172C11.6172 6.11366 11.505 6.19054 11.3812 6.24338C11.2573 6.29623 11.1243 6.324 10.9896 6.32508Z" fill="#4285F4"/>
</g>
<defs>
<clipPath id="clip0_1_10656">
<rect width="16.4679" height="16.4582" fill="white" transform="translate(0 0.500977)"/>
</clipPath>
</defs>
</svg>
