<svg width="13" height="15" viewBox="0 0 13 15" fill="none" xmlns="http://www.w3.org/2000/svg">
<g clip-path="url(#clip0_1_1928)">
<path d="M12.5336 5.68124C12.5166 5.51168 12.4919 5.3427 12.4608 5.1749C12.1763 3.64944 11.4417 2.37568 10.2237 1.41229C8.58617 0.117404 6.72628 -0.311486 4.70621 0.22712C2.48784 0.821464 1.01166 2.25188 0.293516 4.43447C0.000157327 5.32569 -0.0931306 6.24625 0.112807 7.17619C0.285302 7.95653 0.592154 8.68758 0.946531 9.40161C1.67406 10.8649 2.58464 12.2137 3.52808 13.5409C4.07725 14.3118 4.80126 14.8117 5.74411 14.9537C6.94747 15.1344 7.98596 14.7871 8.7792 13.8607C9.40699 13.1273 9.91802 12.3023 10.4361 11.488C11.1196 10.4131 11.7462 9.30598 12.1857 8.10438C12.411 7.48833 12.5741 6.85761 12.5641 6.19286C12.5559 6.02212 12.5512 5.85139 12.5336 5.68124ZM10.8321 7.83977C10.2994 9.16751 9.55249 10.3785 8.75749 11.5607C8.46413 12.0014 8.16549 12.4449 7.83752 12.8621C7.00262 13.9281 5.48009 13.9052 4.68216 12.8063C3.70703 11.4657 2.78647 10.0875 2.06364 8.58901C1.76207 7.96474 1.49335 7.32639 1.39713 6.63289C1.3103 6.00687 1.40886 5.39492 1.60424 4.80292C2.07361 3.38131 3.00767 2.3704 4.37237 1.76549C4.97286 1.5018 5.6222 1.36765 6.27803 1.3718C8.07455 1.43458 9.48443 2.19321 10.4613 3.71867C10.9266 4.44561 11.1531 5.24883 11.1959 6.1072C11.2282 6.71738 11.0562 7.2865 10.8339 7.83977H10.8321Z" fill="#5F82FF"/>
<path d="M6.28188 3.75977C5.78768 3.75919 5.30441 3.90516 4.89317 4.17923C4.48194 4.45329 4.1612 4.84314 3.97151 5.29949C3.78183 5.75583 3.73172 6.25817 3.82752 6.743C3.92332 7.22782 4.16073 7.67335 4.50973 8.02325C4.85873 8.37315 5.30364 8.6117 5.78822 8.70876C6.27279 8.80581 6.77526 8.757 7.23209 8.5685C7.68892 8.37999 8.0796 8.06026 8.35473 7.64973C8.62986 7.2392 8.77708 6.75631 8.77777 6.26211C8.77824 5.59942 8.51564 4.96365 8.04765 4.49445C7.57966 4.02526 6.94457 3.76101 6.28188 3.75977ZM6.2854 7.50771C5.95348 7.50587 5.63567 7.37328 5.40086 7.13868C5.16604 6.90409 5.03316 6.5864 5.031 6.25449C5.02513 5.57448 5.59659 5.01241 6.29303 5.01358C6.4584 5.01449 6.62195 5.04816 6.77424 5.11263C6.92653 5.1771 7.06453 5.2711 7.18029 5.3892C7.29605 5.50731 7.38726 5.64717 7.44867 5.80072C7.51007 5.95427 7.54044 6.11847 7.53804 6.28382C7.52805 6.61043 7.39206 6.92051 7.15856 7.14909C6.92505 7.37767 6.61215 7.50703 6.2854 7.51006V7.50771Z" fill="#5F82FF"/>
</g>
<defs>
<clipPath id="clip0_1_1928">
<rect width="12.5651" height="15" fill="white"/>
</clipPath>
</defs>
</svg>
