<svg width="12" height="15" viewBox="0 0 12 15" fill="none" xmlns="http://www.w3.org/2000/svg">
<g clip-path="url(#clip0_1_1952)">
<path d="M11.9966 6.21519C11.9981 6.05597 11.9883 5.89684 11.9673 5.739C11.8439 4.88073 11.5086 4.11995 10.9151 3.48484C10.1752 2.69589 9.39866 1.93906 8.62549 1.18166C7.81061 0.383126 6.81371 0.00949948 5.67762 0.00273701C4.7968 -8.06839e-05 3.91543 -8.06839e-05 3.03462 -8.06839e-05C2.63962 -0.00681648 2.24766 0.0700004 1.88443 0.225335C0.727489 0.74041 0.0563137 1.62404 0.0208108 2.89764C-0.019764 4.33072 0.0112306 5.76549 0.0112306 7.19969H0.00784937C0.00784937 8.57304 0.00784937 9.94582 0.00784937 11.3192C0.00784937 11.7559 0.060822 12.1853 0.247917 12.5787C0.80413 13.7503 1.73622 14.3876 3.04307 14.3983C5.01546 14.4141 6.98784 14.4023 8.96023 14.4023C9.34977 14.4034 9.73607 14.3315 10.0991 14.1904C11.1952 13.7632 11.9774 12.6897 11.9881 11.5158C12.0073 9.74915 11.9966 7.98189 11.9966 6.21519ZM7.22284 1.63418C7.47587 1.75422 7.68043 1.93737 7.87542 2.1301C8.54866 2.79507 9.21927 3.46287 9.88725 4.13348C10.0854 4.33354 10.2534 4.56134 10.386 4.80972H7.87767C7.6269 4.80972 7.42008 4.72463 7.28483 4.5026C7.23887 4.43069 7.21407 4.3473 7.21326 4.26196C7.21326 3.39524 7.21326 2.52852 7.21326 1.6618C7.20988 1.65391 7.21608 1.64658 7.22284 1.63418ZM10.8069 11.3175C10.8069 12.0991 10.4688 12.6841 9.75595 13.0351C9.55012 13.1388 9.3231 13.1933 9.09266 13.1946C7.6346 13.198 6.17691 13.1993 4.7196 13.1986C4.11943 13.1986 3.51982 13.2053 2.91966 13.1941C2.04561 13.1783 1.29497 12.4615 1.2172 11.5891C1.20312 11.4347 1.19804 11.2803 1.19861 11.1259V3.096C1.19861 2.73816 1.26623 2.39721 1.45502 2.0884C1.7768 1.56036 2.24904 1.23689 2.86386 1.21829C3.84724 1.18842 4.83174 1.20871 5.81625 1.21096C6.00278 1.21096 6.00278 1.21773 6.00278 1.4082C6.00278 2.31776 6.00278 3.22693 6.00278 4.13573C6.00278 5.09826 6.5928 5.80324 7.53842 5.9785C7.65425 5.99548 7.77142 6.00152 7.88838 5.99654C8.80695 5.99654 9.72552 5.99654 10.6446 5.99654C10.75 5.99654 10.7844 6.02077 10.7912 6.1301C10.8013 6.28958 10.8075 6.4485 10.8075 6.60741C10.8086 8.17574 10.8115 9.74576 10.8069 11.3163V11.3175Z" fill="#494949"/>
<path d="M5.99547 9.00214C5.21779 9.00214 4.4401 9.00214 3.66242 9.00214C3.40376 9.00214 3.19637 8.91592 3.07409 8.6736C3.03152 8.59261 3.00831 8.50286 3.00628 8.4114C3.00425 8.31993 3.02346 8.22924 3.0624 8.14645C3.10134 8.06366 3.15894 7.99103 3.23069 7.93426C3.30243 7.87749 3.38636 7.83813 3.47589 7.81927C3.54463 7.80482 3.61471 7.79764 3.68496 7.79786C5.23131 7.79786 6.77748 7.79786 8.32345 7.79786C8.66496 7.79786 8.90108 7.95903 8.97997 8.2408C9.0893 8.63133 8.81091 8.99369 8.38544 9.00101C8.00111 9.00721 7.61677 9.00101 7.23244 9.00101L5.99547 9.00214Z" fill="#494949"/>
<path d="M5.10339 11.3962C4.5962 11.3962 4.08902 11.3996 3.58578 11.3962C3.2747 11.3934 3.03802 11.1618 3.0042 10.8417C2.97659 10.5797 3.18454 10.2911 3.45503 10.2218C3.50047 10.2114 3.54707 10.2068 3.59366 10.2083C4.60071 10.2083 5.60775 10.2055 6.6148 10.2083C6.92756 10.2083 7.15467 10.4236 7.20031 10.742C7.23807 11.0091 7.04703 11.2914 6.77428 11.3765C6.69704 11.3951 6.61741 11.4017 6.53816 11.3962C6.06027 11.3962 5.58239 11.3962 5.10451 11.3962H5.10339Z" fill="#494949"/>
</g>
<defs>
<clipPath id="clip0_1_1952">
<rect width="12" height="14.4069" fill="white"/>
</clipPath>
</defs>
</svg>
