<svg width="12" height="13" viewBox="0 0 12 13" fill="none" xmlns="http://www.w3.org/2000/svg">
<path d="M8.65301 12.1387C3.88184 12.1387 0 8.25684 0 3.48566C0.00180413 2.66727 0.300736 1.87737 0.841218 1.26284C1.3817 0.648299 2.12695 0.250941 2.93842 0.144639C3.14528 0.121703 3.35406 0.165255 3.5345 0.26898C3.71494 0.372704 3.85765 0.531208 3.94193 0.721506L5.14974 3.53974C5.21239 3.68603 5.23751 3.84564 5.22282 4.0041C5.20813 4.16256 5.15409 4.31484 5.06562 4.44711L4.06812 5.9734C4.5198 6.89008 5.26406 7.63011 6.1833 8.07656L7.69156 7.07306C7.8237 6.98399 7.97636 6.93007 8.13512 6.9164C8.29389 6.90273 8.45352 6.92976 8.59893 6.99494L11.4172 8.19674C11.6075 8.28103 11.766 8.42373 11.8697 8.60417C11.9734 8.78461 12.017 8.9934 11.994 9.20025C11.8877 10.0117 11.4904 10.757 10.8758 11.2975C10.2613 11.8379 9.47141 12.1369 8.65301 12.1387ZM3.0586 1.10008C2.4787 1.17462 1.94585 1.45798 1.55982 1.8971C1.17379 2.33622 0.961059 2.90099 0.961446 3.48566C0.963037 5.5251 1.77391 7.48056 3.21601 8.92266C4.65811 10.3648 6.61357 11.1756 8.65301 11.1772C9.23768 11.1776 9.80245 10.9649 10.2416 10.5788C10.6807 10.1928 10.9641 9.65998 11.0386 9.08007L8.22036 7.87827L6.7181 8.88177C6.57987 8.97316 6.42038 9.02726 6.25508 9.03884C6.08978 9.05042 5.9243 9.01909 5.77468 8.94787C4.65516 8.40633 3.7496 7.50499 3.20282 6.38803C3.13072 6.23891 3.09837 6.07371 3.1089 5.90842C3.11943 5.74313 3.17248 5.58337 3.26291 5.44461L4.26641 3.91831L3.0586 1.10008Z" fill="#707781"/>
</svg>
