<svg width="20" height="20" viewBox="0 0 20 20" fill="none" xmlns="http://www.w3.org/2000/svg">
<path d="M12.5584 9.37484L11.8084 10.1415C11.2084 10.7415 10.8334 11.2498 10.8334 12.4998H9.16675V12.0832C9.16675 11.1582 9.54175 10.3248 10.1417 9.72484L11.1751 8.67484C11.4834 8.37484 11.6667 7.95817 11.6667 7.49984C11.6667 7.05781 11.4912 6.63389 11.1786 6.32133C10.866 6.00877 10.4421 5.83317 10.0001 5.83317C9.55805 5.83317 9.13413 6.00877 8.82157 6.32133C8.50901 6.63389 8.33342 7.05781 8.33342 7.49984H6.66675C6.66675 6.61578 7.01794 5.76794 7.64306 5.14281C8.26818 4.51769 9.11603 4.1665 10.0001 4.1665C10.8841 4.1665 11.732 4.51769 12.3571 5.14281C12.9822 5.76794 13.3334 6.61578 13.3334 7.49984C13.3322 8.20254 13.0537 8.87636 12.5584 9.37484ZM10.8334 15.8332H9.16675V14.1665H10.8334M10.0001 1.6665C8.90573 1.6665 7.8221 1.88205 6.81105 2.30084C5.80001 2.71963 4.88135 3.33346 4.10752 4.10728C2.54472 5.67008 1.66675 7.7897 1.66675 9.99984C1.66675 12.21 2.54472 14.3296 4.10752 15.8924C4.88135 16.6662 5.80001 17.28 6.81105 17.6988C7.8221 18.1176 8.90573 18.3332 10.0001 18.3332C12.2102 18.3332 14.3298 17.4552 15.8926 15.8924C17.4554 14.3296 18.3334 12.21 18.3334 9.99984C18.3334 5.3915 14.5834 1.6665 10.0001 1.6665Z" fill="#8B8B8B"/>
</svg>
