<svg width="15" height="14" viewBox="0 0 15 14" fill="none" xmlns="http://www.w3.org/2000/svg">
<g clip-path="url(#clip0_1_1935)">
<path d="M14.6435 7.44861C14.6435 6.76145 14.6503 6.07774 14.6383 5.39231C14.6288 4.78806 14.4261 4.20272 14.06 3.72196C13.4347 2.88707 12.594 2.46218 11.5444 2.46218C10.9918 2.46218 10.4392 2.45817 9.88666 2.46504C9.77557 2.46504 9.75725 2.43297 9.75725 2.33047C9.75725 2.05561 9.77786 1.77961 9.72919 1.50475C9.59233 0.729412 8.91148 0.0949421 8.135 0.035389C7.59393 -0.0130994 7.04956 -0.0117576 6.50874 0.0393974C5.77521 0.11842 5.28103 0.531856 5.00388 1.20927C4.85499 1.57289 4.88935 1.95769 4.89336 2.33677C4.89336 2.43469 4.87275 2.4639 4.77025 2.46275C4.21766 2.45702 3.66508 2.46275 3.11249 2.45931C2.66871 2.45702 2.23351 2.51944 1.83554 2.71471C0.638177 3.2942 0.021459 4.25335 0.00886125 5.58585C-0.000300767 6.53813 0.00886125 7.48983 0.00886125 8.44211C0.00886125 9.13671 -0.0128985 9.83302 0.0191685 10.5265C0.0632607 11.4719 0.477269 12.2443 1.236 12.817C1.81149 13.2522 2.47058 13.4337 3.18694 13.4325C4.56353 13.4303 5.94012 13.4303 7.31671 13.4325C8.71736 13.4325 10.1178 13.4325 11.5181 13.4325C12.188 13.4325 12.8111 13.2608 13.3551 12.8639C14.214 12.2386 14.6389 11.382 14.6446 10.3215C14.6475 9.36232 14.644 8.40546 14.6435 7.44861ZM6.09874 2.34765C6.10676 2.19591 6.09874 2.04359 6.09874 1.88955C6.11019 1.48871 6.35642 1.24019 6.75726 1.23733C7.13901 1.23428 7.52076 1.23428 7.90251 1.23733C8.29075 1.24077 8.54099 1.49043 8.5513 1.88154C8.55588 2.03843 8.54671 2.19533 8.55416 2.35223C8.55874 2.43985 8.53412 2.46676 8.44479 2.46275C8.07373 2.45702 7.70037 2.46275 7.33103 2.46275C6.96169 2.46275 6.58662 2.45931 6.21727 2.46275C6.1205 2.46218 6.09416 2.43756 6.09874 2.34765ZM13.4123 10.4961C13.4072 11.3075 12.72 12.0554 11.9092 12.1819C11.7775 12.2019 11.6444 12.2113 11.5112 12.21C10.1155 12.21 8.72003 12.21 7.32473 12.21H3.12395C2.14647 12.21 1.42726 11.611 1.2526 10.6507C1.23674 10.5475 1.23003 10.4431 1.23256 10.3386C1.23256 8.73911 1.23256 7.13977 1.23256 5.54062C1.23256 4.62441 1.8195 3.89432 2.69276 3.7168C2.84217 3.68779 2.99408 3.6736 3.14628 3.67443C5.93306 3.67214 8.71984 3.67214 11.5066 3.67443C12.3083 3.67443 12.9038 4.02545 13.26 4.75268C13.359 4.9481 13.4121 5.16353 13.4152 5.38257C13.4175 7.08556 13.4238 8.7897 13.4123 10.4933V10.4961Z" fill="#5F82FF"/>
<path d="M7.92864 9.24929C7.92864 9.43482 7.93322 9.62093 7.92864 9.80646C7.91661 9.95804 7.84775 10.0995 7.73586 10.2024C7.62398 10.3054 7.47732 10.3623 7.32526 10.3617C7.17321 10.3611 7.02699 10.3031 6.91588 10.1993C6.80478 10.0955 6.73701 9.95354 6.72613 9.80188C6.71926 9.42108 6.7204 9.04029 6.72613 8.65949C6.72613 8.57016 6.70322 8.54496 6.61561 8.5484C6.24856 8.55355 5.88151 8.55584 5.51502 8.5484C5.02085 8.53866 4.73053 8.03991 4.97847 7.62876C5.10388 7.41517 5.30831 7.32985 5.55454 7.32985C5.90212 7.32985 6.25028 7.32584 6.59786 7.32985C6.6975 7.32985 6.72556 7.30466 6.72384 7.20445C6.71754 6.83797 6.71868 6.47091 6.72384 6.10443C6.72785 5.78605 6.94201 5.55528 7.26612 5.5089C7.53811 5.46996 7.82443 5.66294 7.91204 5.94009C7.93036 6.01497 7.93712 6.09221 7.93208 6.16914C7.93208 6.51271 7.93666 6.85629 7.93208 7.19987C7.93208 7.30294 7.9504 7.33901 8.06206 7.33615C8.4148 7.32813 8.76735 7.32813 9.11971 7.33615C9.58411 7.34474 9.88588 7.75932 9.72898 8.16302C9.68372 8.28195 9.60257 8.38383 9.49677 8.45453C9.39098 8.52523 9.26579 8.56124 9.1386 8.55756C8.7767 8.56138 8.41404 8.56138 8.05061 8.55756C7.96071 8.55756 7.92521 8.57417 7.92979 8.67209C7.93781 8.86678 7.92979 9.06205 7.92979 9.25731L7.92864 9.24929Z" fill="#5F82FF"/>
</g>
<defs>
<clipPath id="clip0_1_1935">
<rect width="14.6449" height="13.4315" fill="white"/>
</clipPath>
</defs>
</svg>
