<svg width="11" height="15" viewBox="0 0 11 15" fill="none" xmlns="http://www.w3.org/2000/svg">
<g clip-path="url(#clip0_1_1921)">
<path d="M5.33509 8.28662C6.78608 8.3122 8.04741 8.81273 9.07795 9.8366C9.92234 10.6614 10.4611 11.7489 10.6057 12.9204C10.634 13.1368 10.6474 13.3531 10.6546 13.57C10.6663 13.917 10.4405 14.1701 10.1068 14.1996C9.79593 14.2274 9.53343 14.0144 9.48171 13.679C9.445 13.4371 9.4539 13.1913 9.41497 12.9482C9.28217 12.1264 8.9043 11.3637 8.33083 10.7602C7.75737 10.1567 7.01503 9.74035 6.20101 9.56575C5.2072 9.34064 4.16502 9.49957 3.28348 10.0107C2.33803 10.5457 1.70625 11.3482 1.36922 12.3787C1.25115 12.754 1.19058 13.1449 1.18959 13.5383C1.1857 13.7724 1.1134 13.9793 0.907068 14.1089C0.819628 14.1669 0.717839 14.1995 0.612994 14.2031C0.50815 14.2067 0.404348 14.1813 0.313106 14.1295C0.215124 14.0815 0.133295 14.0059 0.0776706 13.9121C0.0220462 13.8182 -0.00495072 13.7101 -3.69019e-06 13.6011C0.00554836 12.3291 0.465363 11.1009 1.29654 10.138C2.12772 9.17507 3.27556 8.54078 4.53313 8.34947C4.79863 8.30961 5.06662 8.28861 5.33509 8.28662Z" fill="#5F82FF"/>
<path d="M5.38623 0.000187045C4.91873 -0.00894867 4.45406 0.074685 4.01909 0.246252C3.58411 0.417819 3.18746 0.673915 2.85208 0.999731C2.5167 1.32555 2.24923 1.71462 2.06515 2.14445C1.88107 2.57428 1.78403 3.03633 1.77963 3.5039C1.74904 5.41648 3.25898 7.0521 5.27834 7.10216C5.74466 7.10924 6.20781 7.02441 6.64135 6.8525C7.07488 6.68059 7.47031 6.42497 7.80506 6.10024C8.13981 5.77551 8.40732 5.38803 8.59232 4.95991C8.77732 4.5318 8.87618 4.07144 8.88327 3.60512C8.89035 3.1388 8.80552 2.67564 8.63361 2.24211C8.4617 1.80857 8.20608 1.41314 7.88135 1.07839C7.55662 0.743643 7.16914 0.476133 6.74103 0.291134C6.31291 0.106135 5.85255 0.00727134 5.38623 0.000187045ZM5.34285 5.91201C5.0301 5.91534 4.71981 5.85632 4.43012 5.73839C4.14043 5.62046 3.87715 5.44598 3.65565 5.22515C3.43415 5.00433 3.25887 4.74157 3.14006 4.45225C3.02125 4.16292 2.96128 3.85281 2.96366 3.54005C2.96366 2.22922 4.02034 1.18478 5.34786 1.18589C5.65825 1.18622 5.96554 1.24768 6.25218 1.36677C6.53882 1.48585 6.7992 1.66023 7.01845 1.87994C7.2377 2.09966 7.41153 2.36041 7.53001 2.6473C7.64849 2.93419 7.7093 3.24161 7.70897 3.55201C7.70864 3.8624 7.64718 4.16969 7.52809 4.45633C7.409 4.74297 7.23463 5.00335 7.01491 5.2226C6.7952 5.44185 6.53445 5.61568 6.24756 5.73416C5.96066 5.85264 5.65325 5.91345 5.34285 5.91312V5.91201Z" fill="#5F82FF"/>
</g>
<defs>
<clipPath id="clip0_1_1921">
<rect width="10.6552" height="14.2073" fill="white"/>
</clipPath>
</defs>
</svg>
